<svg xmlns="http://www.w3.org/2000/svg" width="48" height="31" viewBox="0 0 48 31">
  <metadata><?xpacket begin="﻿" id="W5M0MpCehiHzreSzNTczkc9d"?>
<x:xmpmeta xmlns:x="adobe:ns:meta/" x:xmptk="Adobe XMP Core 5.6-c138 79.159824, 2016/09/14-01:09:01        ">
   <rdf:RDF xmlns:rdf="http://www.w3.org/1999/02/22-rdf-syntax-ns#">
      <rdf:Description rdf:about=""/>
   </rdf:RDF>
</x:xmpmeta>
                                                                                                    
                                                                                                    
                                                                                                    
                                                                                                    
                                                                                                    
                                                                                                    
                                                                                                    
                                                                                                    
                                                                                                    
                                                                                                    
                                                                                                    
                                                                                                    
                                                                                                    
                                                                                                    
                                                                                                    
                                                                                                    
                                                                                                    
                                                                                                    
                                                                                                    
                                                                                                    
                           
<?xpacket end="w"?></metadata>
<defs>
    <style>
      .cls-1, .cls-4 {
        fill: #fff;
      }

      .cls-2 {
        fill: #ec3f54;
      }

      .cls-3 {
        fill: #478bd7;
      }

      .cls-4 {
        fill-rule: evenodd;
      }
    </style>
  </defs>
  <rect class="cls-1" width="48" height="31"/>
  <rect class="cls-2" x="23" width="25" height="3"/>
  <rect id="Rectangle_556_copy" data-name="Rectangle 556 copy" class="cls-2" x="23" y="7" width="25" height="3"/>
  <rect id="Rectangle_556_copy_2" data-name="Rectangle 556 copy 2" class="cls-2" x="23" y="14" width="25" height="3"/>
  <rect id="Rectangle_556_copy_3" data-name="Rectangle 556 copy 3" class="cls-2" y="21" width="48" height="3"/>
  <rect id="Rectangle_556_copy_4" data-name="Rectangle 556 copy 4" class="cls-2" y="28" width="48" height="3"/>
  <rect class="cls-3" width="23" height="17"/>
  <path class="cls-4" d="M3.875,2.469A1.157,1.157,0,1,1,2.75,3.625,1.141,1.141,0,0,1,3.875,2.469Zm3.75,0A1.157,1.157,0,1,1,6.5,3.625,1.141,1.141,0,0,1,7.625,2.469Zm3.75,0A1.157,1.157,0,1,1,10.25,3.625,1.141,1.141,0,0,1,11.375,2.469Zm3.75,0A1.157,1.157,0,1,1,14,3.625,1.141,1.141,0,0,1,15.125,2.469Zm3.75,0A1.157,1.157,0,1,1,17.75,3.625,1.141,1.141,0,0,1,18.875,2.469ZM5.656,5.813A1.157,1.157,0,1,1,4.531,6.969,1.141,1.141,0,0,1,5.656,5.813Zm3.75,0A1.157,1.157,0,1,1,8.281,6.969,1.141,1.141,0,0,1,9.406,5.813Zm3.766,0a1.156,1.156,0,1,1-1.141,1.156A1.149,1.149,0,0,1,13.172,5.813Zm3.75,0a1.157,1.157,0,1,1-1.109,1.156A1.134,1.134,0,0,1,16.922,5.813ZM3.875,8.969A1.157,1.157,0,1,1,2.75,10.125,1.141,1.141,0,0,1,3.875,8.969Zm3.75,0A1.157,1.157,0,1,1,6.5,10.125,1.141,1.141,0,0,1,7.625,8.969Zm3.75,0a1.157,1.157,0,1,1-1.125,1.156A1.141,1.141,0,0,1,11.375,8.969Zm3.75,0A1.157,1.157,0,1,1,14,10.125,1.141,1.141,0,0,1,15.125,8.969Zm3.75,0a1.157,1.157,0,1,1-1.125,1.156A1.141,1.141,0,0,1,18.875,8.969ZM5.656,12.156a1.157,1.157,0,1,1-1.125,1.156A1.141,1.141,0,0,1,5.656,12.156Zm3.75,0a1.157,1.157,0,1,1-1.125,1.156A1.141,1.141,0,0,1,9.406,12.156Zm3.766,0a1.156,1.156,0,1,1-1.141,1.156A1.148,1.148,0,0,1,13.172,12.156Zm3.75,0a1.157,1.157,0,1,1-1.109,1.156A1.133,1.133,0,0,1,16.922,12.156Z"/>
</svg>
